<?xml version="1.0" encoding="UTF-8"?><svg xmlns="http://www.w3.org/2000/svg" xmlns:xlink="http://www.w3.org/1999/xlink" fill-opacity="1" color-rendering="auto" color-interpolation="auto" text-rendering="auto" stroke="black" stroke-linecap="square" width="1374" stroke-miterlimit="10" shape-rendering="auto" stroke-opacity="1" fill="black" stroke-dasharray="none" font-weight="normal" stroke-width="1" height="656" font-family="'Dialog'" font-style="normal" stroke-linejoin="miter" font-size="12px" stroke-dashoffset="0" image-rendering="auto">
  <!--Generated by ySVG 2.6-->
  <defs id="genericDefs"/>
  <g>
    <defs id="defs1">
      <clipPath clipPathUnits="userSpaceOnUse" id="clipPath1">
        <path d="M0 0 L1374 0 L1374 656 L0 656 L0 0 Z"/>
      </clipPath>
      <clipPath clipPathUnits="userSpaceOnUse" id="clipPath2">
        <path d="M-291 75 L1083 75 L1083 731 L-291 731 L-291 75 Z"/>
      </clipPath>
      <clipPath clipPathUnits="userSpaceOnUse" id="clipPath3">
        <path d="M940 117 L940 303 L1040 303 L1040 117 Z"/>
      </clipPath>
      <clipPath clipPathUnits="userSpaceOnUse" id="clipPath4">
        <path d="M296 112 L296 216 L491 216 L491 112 Z"/>
      </clipPath>
      <clipPath clipPathUnits="userSpaceOnUse" id="clipPath5">
        <path d="M296 239 L296 378 L491 378 L491 239 Z"/>
      </clipPath>
      <clipPath clipPathUnits="userSpaceOnUse" id="clipPath6">
        <path d="M229 544 L229 714 L329 714 L329 544 Z"/>
      </clipPath>
      <clipPath clipPathUnits="userSpaceOnUse" id="clipPath7">
        <path d="M340 544 L340 714 L440 714 L440 544 Z"/>
      </clipPath>
      <clipPath clipPathUnits="userSpaceOnUse" id="clipPath8">
        <path d="M451 544 L451 714 L551 714 L551 544 Z"/>
      </clipPath>
      <clipPath clipPathUnits="userSpaceOnUse" id="clipPath9">
        <path d="M700 239 L700 338 L859 338 L859 239 Z"/>
      </clipPath>
      <clipPath clipPathUnits="userSpaceOnUse" id="clipPath10">
        <path d="M-7 173 L-7 343 L128 343 L128 173 Z"/>
      </clipPath>
      <clipPath clipPathUnits="userSpaceOnUse" id="clipPath11">
        <path d="M670 544 L670 673 L770 673 L770 544 Z"/>
      </clipPath>
      <clipPath clipPathUnits="userSpaceOnUse" id="clipPath12">
        <path d="M790 544 L790 673 L890 673 L890 544 Z"/>
      </clipPath>
      <clipPath clipPathUnits="userSpaceOnUse" id="clipPath13">
        <path d="M910 544 L910 673 L1010 673 L1010 544 Z"/>
      </clipPath>
      <clipPath clipPathUnits="userSpaceOnUse" id="clipPath14">
        <path d="M3 585 L3 714 L198 714 L198 585 Z"/>
      </clipPath>
      <clipPath clipPathUnits="userSpaceOnUse" id="clipPath15">
        <path d="M-200 173 L-200 411 L-65 411 L-65 173 Z"/>
      </clipPath>
      <clipPath clipPathUnits="userSpaceOnUse" id="clipPath16">
        <path d="M-175 585 L-175 714 L-26 714 L-26 585 Z"/>
      </clipPath>
    </defs>
    <g fill="white" text-rendering="geometricPrecision" shape-rendering="geometricPrecision" transform="translate(291,-75)" stroke="white">
      <rect x="-291" width="1374" height="656" y="75" clip-path="url(#clipPath2)" stroke="none"/>
    </g>
    <g fill="rgb(255,204,0)" text-rendering="geometricPrecision" shape-rendering="geometricPrecision" transform="matrix(1,0,0,1,291,-75)" stroke="rgb(255,204,0)">
      <rect x="941" width="98" height="184" y="118" clip-path="url(#clipPath2)" stroke="none"/>
      <rect x="940" y="117" clip-path="url(#clipPath2)" fill="yellow" width="1" height="186" stroke="none"/>
      <rect x="941" y="117" clip-path="url(#clipPath2)" fill="yellow" width="98" height="1" stroke="none"/>
      <rect x="941" y="302" clip-path="url(#clipPath2)" fill="rgb(178,142,0)" width="99" height="1" stroke="none"/>
      <rect x="1039" y="117" clip-path="url(#clipPath2)" fill="rgb(178,142,0)" width="1" height="185" stroke="none"/>
    </g>
    <g text-rendering="geometricPrecision" stroke-miterlimit="1.45" shape-rendering="geometricPrecision" font-family="sans-serif" transform="matrix(1,0,0,1,291,-75)" stroke-linecap="butt">
      <text x="962.1238" xml:space="preserve" y="135.0701" clip-path="url(#clipPath3)" stroke="none">&lt;&lt;bean&gt;&gt;</text>
      <text x="949.193" font-size="13px" y="161.4831" clip-path="url(#clipPath3)" stroke="none" font-weight="bold" xml:space="preserve">Transformer</text>
      <text x="977.845" font-size="13px" y="179.1892" clip-path="url(#clipPath3)" stroke="none" font-weight="bold" xml:space="preserve">DTS</text>
      <text x="984.4425" font-size="13px" y="196.8952" clip-path="url(#clipPath3)" stroke="none" font-weight="bold" xml:space="preserve">...</text>
      <text x="957.5325" font-size="13px" y="214.6012" clip-path="url(#clipPath3)" stroke="none" font-weight="bold" xml:space="preserve">Endpoints</text>
    </g>
    <g fill="rgb(255,204,0)" text-rendering="geometricPrecision" shape-rendering="geometricPrecision" transform="matrix(1,0,0,1,291,-75)" stroke="rgb(255,204,0)">
      <rect x="297" width="193" height="102" y="113" clip-path="url(#clipPath2)" stroke="none"/>
      <rect x="296" y="112" clip-path="url(#clipPath2)" fill="yellow" width="1" height="104" stroke="none"/>
      <rect x="297" y="112" clip-path="url(#clipPath2)" fill="yellow" width="193" height="1" stroke="none"/>
      <rect x="297" y="215" clip-path="url(#clipPath2)" fill="rgb(178,142,0)" width="194" height="1" stroke="none"/>
      <rect x="490" y="112" clip-path="url(#clipPath2)" fill="rgb(178,142,0)" width="1" height="103" stroke="none"/>
    </g>
    <g text-rendering="geometricPrecision" stroke-miterlimit="1.45" shape-rendering="geometricPrecision" font-family="sans-serif" transform="matrix(1,0,0,1,291,-75)" stroke-linecap="butt">
      <text x="355.4737" xml:space="preserve" y="130.2681" clip-path="url(#clipPath4)" stroke="none">&lt;&lt;interface&gt;&gt;</text>
      <text x="328.972" font-size="13px" y="156.6811" clip-path="url(#clipPath4)" stroke="none" font-weight="bold" xml:space="preserve">TransformationMap</text>
      <line stroke-linecap="square" clip-path="url(#clipPath4)" fill="none" x1="297" x2="490" y1="165" y2="165" stroke-miterlimit="10"/>
      <line stroke-linecap="square" clip-path="url(#clipPath4)" fill="none" x1="297" x2="490" y1="175" y2="175" stroke-miterlimit="10"/>
      <text x="301.5" xml:space="preserve" y="193.3182" clip-path="url(#clipPath4)" stroke="none">get(transformationId)</text>
      <text x="301.5" xml:space="preserve" y="209.6623" clip-path="url(#clipPath4)" stroke="none">keySet()</text>
    </g>
    <g fill="rgb(255,204,0)" text-rendering="geometricPrecision" shape-rendering="geometricPrecision" transform="matrix(1,0,0,1,291,-75)" stroke="rgb(255,204,0)">
      <rect x="297" width="193" height="137" y="240" clip-path="url(#clipPath2)" stroke="none"/>
      <rect x="296" y="239" clip-path="url(#clipPath2)" fill="yellow" width="1" height="139" stroke="none"/>
      <rect x="297" y="239" clip-path="url(#clipPath2)" fill="yellow" width="193" height="1" stroke="none"/>
      <rect x="297" y="377" clip-path="url(#clipPath2)" fill="rgb(178,142,0)" width="194" height="1" stroke="none"/>
      <rect x="490" y="239" clip-path="url(#clipPath2)" fill="rgb(178,142,0)" width="1" height="138" stroke="none"/>
    </g>
    <g text-rendering="geometricPrecision" stroke-miterlimit="1.45" shape-rendering="geometricPrecision" font-family="sans-serif" transform="matrix(1,0,0,1,291,-75)" stroke-linecap="butt">
      <text x="355.4737" xml:space="preserve" y="257.3881" clip-path="url(#clipPath5)" stroke="none">&lt;&lt;interface&gt;&gt;</text>
      <text x="343.142" font-size="13px" y="283.8011" clip-path="url(#clipPath5)" stroke="none" font-weight="bold" xml:space="preserve">Transformation</text>
      <line stroke-linecap="square" clip-path="url(#clipPath5)" fill="none" x1="297" x2="490" y1="292" y2="292" stroke-miterlimit="10"/>
      <line stroke-linecap="square" clip-path="url(#clipPath5)" fill="none" x1="297" x2="490" y1="302" y2="302" stroke-miterlimit="10"/>
      <text x="301.5" xml:space="preserve" y="320.4382" clip-path="url(#clipPath5)" stroke="none">setup(TransformationInfo)</text>
      <text x="301.5" xml:space="preserve" y="336.7823" clip-path="url(#clipPath5)" stroke="none">transform(..., ResourceProvider)</text>
      <text x="301.5" xml:space="preserve" y="353.1264" clip-path="url(#clipPath5)" stroke="none">getType()</text>
      <text x="301.5" xml:space="preserve" y="369.4706" clip-path="url(#clipPath5)" stroke="none">getTransformationInfo()</text>
    </g>
    <g fill="rgb(255,204,0)" text-rendering="geometricPrecision" shape-rendering="geometricPrecision" transform="matrix(1,0,0,1,291,-75)" stroke="rgb(255,204,0)">
      <rect x="230" width="98" height="168" y="545" clip-path="url(#clipPath2)" stroke="none"/>
      <rect x="229" y="544" clip-path="url(#clipPath2)" fill="yellow" width="1" height="170" stroke="none"/>
      <rect x="230" y="544" clip-path="url(#clipPath2)" fill="yellow" width="98" height="1" stroke="none"/>
      <rect x="230" y="713" clip-path="url(#clipPath2)" fill="rgb(178,142,0)" width="99" height="1" stroke="none"/>
      <rect x="328" y="544" clip-path="url(#clipPath2)" fill="rgb(178,142,0)" width="1" height="169" stroke="none"/>
    </g>
    <g text-rendering="geometricPrecision" stroke-miterlimit="1.45" shape-rendering="geometricPrecision" font-family="sans-serif" transform="matrix(1,0,0,1,291,-75)" stroke-linecap="butt">
      <text x="251.1238" xml:space="preserve" y="562.7881" clip-path="url(#clipPath6)" stroke="none">&lt;&lt;bean&gt;&gt;</text>
      <text x="259.4415" font-size="13px" y="589.2011" clip-path="url(#clipPath6)" stroke="none" font-weight="bold" xml:space="preserve">Saxon</text>
      <text x="269.4515" font-size="13px" y="606.9072" clip-path="url(#clipPath6)" stroke="none" font-weight="bold" xml:space="preserve">Xsl</text>
      <text x="227.962" font-size="13px" y="624.6132" clip-path="url(#clipPath6)" stroke="none" font-weight="bold" xml:space="preserve">Transformation</text>
      <line stroke-linecap="square" clip-path="url(#clipPath6)" fill="none" x1="230" x2="328" y1="633" y2="633" stroke-miterlimit="10"/>
      <text x="234" xml:space="preserve" y="651.2502" clip-path="url(#clipPath6)" stroke="none">trInfo</text>
      <line stroke-linecap="square" clip-path="url(#clipPath6)" fill="none" x1="230" x2="328" y1="659" y2="659" stroke-miterlimit="10"/>
      <text x="234" xml:space="preserve" y="677.5944" clip-path="url(#clipPath6)" stroke="none">setup(Tr..Info)</text>
      <text x="234" xml:space="preserve" y="693.9385" clip-path="url(#clipPath6)" stroke="none">transform(...,RP)</text>
      <text x="234" xml:space="preserve" y="710.2826" clip-path="url(#clipPath6)" stroke="none">...</text>
    </g>
    <g fill="rgb(255,204,0)" text-rendering="geometricPrecision" shape-rendering="geometricPrecision" transform="matrix(1,0,0,1,291,-75)" stroke="rgb(255,204,0)">
      <rect x="341" width="98" height="168" y="545" clip-path="url(#clipPath2)" stroke="none"/>
      <rect x="340" y="544" clip-path="url(#clipPath2)" fill="yellow" width="1" height="170" stroke="none"/>
      <rect x="341" y="544" clip-path="url(#clipPath2)" fill="yellow" width="98" height="1" stroke="none"/>
      <rect x="341" y="713" clip-path="url(#clipPath2)" fill="rgb(178,142,0)" width="99" height="1" stroke="none"/>
      <rect x="439" y="544" clip-path="url(#clipPath2)" fill="rgb(178,142,0)" width="1" height="169" stroke="none"/>
    </g>
    <g text-rendering="geometricPrecision" stroke-miterlimit="1.45" shape-rendering="geometricPrecision" font-family="sans-serif" transform="matrix(1,0,0,1,291,-75)" stroke-linecap="butt">
      <text x="362.1238" xml:space="preserve" y="562.7881" clip-path="url(#clipPath7)" stroke="none">&lt;&lt;bean&gt;&gt;</text>
      <text x="370.4415" font-size="13px" y="589.2011" clip-path="url(#clipPath7)" stroke="none" font-weight="bold" xml:space="preserve">Saxon</text>
      <text x="365.729" font-size="13px" y="606.9072" clip-path="url(#clipPath7)" stroke="none" font-weight="bold" xml:space="preserve">XQuery</text>
      <text x="338.962" font-size="13px" y="624.6132" clip-path="url(#clipPath7)" stroke="none" font-weight="bold" xml:space="preserve">Transformation</text>
      <line stroke-linecap="square" clip-path="url(#clipPath7)" fill="none" x1="341" x2="439" y1="633" y2="633" stroke-miterlimit="10"/>
      <text x="345" xml:space="preserve" y="651.2502" clip-path="url(#clipPath7)" stroke="none">trInfo</text>
      <line stroke-linecap="square" clip-path="url(#clipPath7)" fill="none" x1="341" x2="439" y1="659" y2="659" stroke-miterlimit="10"/>
      <text x="345" xml:space="preserve" y="677.5944" clip-path="url(#clipPath7)" stroke="none">setup(Tr..Info)</text>
      <text x="345" xml:space="preserve" y="693.9385" clip-path="url(#clipPath7)" stroke="none">transform(...,RP)</text>
      <text x="345" xml:space="preserve" y="710.2826" clip-path="url(#clipPath7)" stroke="none">...</text>
    </g>
    <g fill="rgb(255,204,0)" text-rendering="geometricPrecision" shape-rendering="geometricPrecision" transform="matrix(1,0,0,1,291,-75)" stroke="rgb(255,204,0)">
      <rect x="452" width="98" height="168" y="545" clip-path="url(#clipPath2)" stroke="none"/>
      <rect x="451" y="544" clip-path="url(#clipPath2)" fill="yellow" width="1" height="170" stroke="none"/>
      <rect x="452" y="544" clip-path="url(#clipPath2)" fill="yellow" width="98" height="1" stroke="none"/>
      <rect x="452" y="713" clip-path="url(#clipPath2)" fill="rgb(178,142,0)" width="99" height="1" stroke="none"/>
      <rect x="550" y="544" clip-path="url(#clipPath2)" fill="rgb(178,142,0)" width="1" height="169" stroke="none"/>
    </g>
    <g text-rendering="geometricPrecision" stroke-miterlimit="1.45" shape-rendering="geometricPrecision" font-family="sans-serif" transform="matrix(1,0,0,1,291,-75)" stroke-linecap="butt">
      <text x="473.1238" xml:space="preserve" y="562.7881" clip-path="url(#clipPath8)" stroke="none">&lt;&lt;bean&gt;&gt;</text>
      <text x="475.715" font-size="13px" y="589.2011" clip-path="url(#clipPath8)" stroke="none" font-weight="bold" xml:space="preserve">SPARQL</text>
      <text x="449.962" font-size="13px" y="606.9072" clip-path="url(#clipPath8)" stroke="none" font-weight="bold" xml:space="preserve">Transformation</text>
      <line stroke-linecap="square" clip-path="url(#clipPath8)" fill="none" x1="452" x2="550" y1="615" y2="615" stroke-miterlimit="10"/>
      <text x="456" xml:space="preserve" y="633.5443" clip-path="url(#clipPath8)" stroke="none">trInfo</text>
      <line stroke-linecap="square" clip-path="url(#clipPath8)" fill="none" x1="452" x2="550" y1="642" y2="642" stroke-miterlimit="10"/>
      <text x="456" xml:space="preserve" y="659.8884" clip-path="url(#clipPath8)" stroke="none">setup(Tr..Info)</text>
      <text x="456" xml:space="preserve" y="676.2325" clip-path="url(#clipPath8)" stroke="none">transform(...,RP)</text>
      <text x="456" xml:space="preserve" y="692.5766" clip-path="url(#clipPath8)" stroke="none">...</text>
    </g>
    <g fill="rgb(255,204,0)" text-rendering="geometricPrecision" shape-rendering="geometricPrecision" transform="matrix(1,0,0,1,291,-75)" stroke="rgb(255,204,0)">
      <rect x="701" width="157" height="97" y="240" clip-path="url(#clipPath2)" stroke="none"/>
      <rect x="700" y="239" clip-path="url(#clipPath2)" fill="yellow" width="1" height="99" stroke="none"/>
      <rect x="701" y="239" clip-path="url(#clipPath2)" fill="yellow" width="157" height="1" stroke="none"/>
      <rect x="701" y="337" clip-path="url(#clipPath2)" fill="rgb(178,142,0)" width="158" height="1" stroke="none"/>
      <rect x="858" y="239" clip-path="url(#clipPath2)" fill="rgb(178,142,0)" width="1" height="98" stroke="none"/>
    </g>
    <g text-rendering="geometricPrecision" stroke-miterlimit="1.45" shape-rendering="geometricPrecision" font-family="sans-serif" transform="matrix(1,0,0,1,291,-75)" stroke-linecap="butt">
      <text x="741.2937" xml:space="preserve" y="257.3881" clip-path="url(#clipPath9)" stroke="none">&lt;&lt;interface&gt;&gt;</text>
      <text x="722.5659" font-size="13px" y="283.8011" clip-path="url(#clipPath9)" stroke="none" font-weight="bold" xml:space="preserve">ResourceProvider</text>
      <line stroke-linecap="square" clip-path="url(#clipPath9)" fill="none" x1="701" x2="858" y1="292" y2="292" stroke-miterlimit="10"/>
      <line stroke-linecap="square" clip-path="url(#clipPath9)" fill="none" x1="701" x2="858" y1="302" y2="302" stroke-miterlimit="10"/>
      <text x="705.24" xml:space="preserve" y="320.4382" clip-path="url(#clipPath9)" stroke="none">getResource(...)</text>
    </g>
    <g fill="rgb(255,204,0)" text-rendering="geometricPrecision" shape-rendering="geometricPrecision" transform="matrix(1,0,0,1,291,-75)" stroke="rgb(255,204,0)">
      <rect x="-6" width="133" height="168" y="174" clip-path="url(#clipPath2)" stroke="none"/>
      <rect x="-7" y="173" clip-path="url(#clipPath2)" fill="yellow" width="1" height="170" stroke="none"/>
      <rect x="-6" y="173" clip-path="url(#clipPath2)" fill="yellow" width="133" height="1" stroke="none"/>
      <rect x="-6" y="342" clip-path="url(#clipPath2)" fill="rgb(178,142,0)" width="134" height="1" stroke="none"/>
      <rect x="127" y="173" clip-path="url(#clipPath2)" fill="rgb(178,142,0)" width="1" height="169" stroke="none"/>
    </g>
    <g text-rendering="geometricPrecision" stroke-miterlimit="1.45" shape-rendering="geometricPrecision" font-family="sans-serif" transform="matrix(1,0,0,1,291,-75)" stroke-linecap="butt">
      <text x="32.1238" xml:space="preserve" y="191.4481" clip-path="url(#clipPath10)" stroke="none">&lt;&lt;bean&gt;&gt;</text>
      <text x="23.7755" font-size="13px" y="217.8611" clip-path="url(#clipPath10)" stroke="none" font-weight="bold" xml:space="preserve">Configured</text>
      <text x="8.962" font-size="13px" y="235.5671" clip-path="url(#clipPath10)" stroke="none" font-weight="bold" xml:space="preserve">Transformation</text>
      <text x="45.83" font-size="13px" y="253.2732" clip-path="url(#clipPath10)" stroke="none" font-weight="bold" xml:space="preserve">Map</text>
      <line stroke-linecap="square" clip-path="url(#clipPath10)" fill="none" x1="-6" x2="126" y1="262" y2="262" stroke-miterlimit="10"/>
      <text x="-2.64" xml:space="preserve" y="279.9102" clip-path="url(#clipPath10)" stroke="none">transformations</text>
      <text x="-2.64" xml:space="preserve" y="296.2544" clip-path="url(#clipPath10)" stroke="none">configLocations</text>
      <line stroke-linecap="square" clip-path="url(#clipPath10)" fill="none" x1="-6" x2="126" y1="304" y2="304" stroke-miterlimit="10"/>
      <text x="-2.64" xml:space="preserve" y="322.5985" clip-path="url(#clipPath10)" stroke="none">get(transformationId)</text>
      <text x="-2.64" xml:space="preserve" y="338.9426" clip-path="url(#clipPath10)" stroke="none">keySet()</text>
    </g>
    <g fill="rgb(255,204,0)" text-rendering="geometricPrecision" shape-rendering="geometricPrecision" transform="matrix(1,0,0,1,291,-75)" stroke="rgb(255,204,0)">
      <rect x="671" width="98" height="127" y="545" clip-path="url(#clipPath2)" stroke="none"/>
      <rect x="670" y="544" clip-path="url(#clipPath2)" fill="yellow" width="1" height="129" stroke="none"/>
      <rect x="671" y="544" clip-path="url(#clipPath2)" fill="yellow" width="98" height="1" stroke="none"/>
      <rect x="671" y="672" clip-path="url(#clipPath2)" fill="rgb(178,142,0)" width="99" height="1" stroke="none"/>
      <rect x="769" y="544" clip-path="url(#clipPath2)" fill="rgb(178,142,0)" width="1" height="128" stroke="none"/>
    </g>
    <g text-rendering="geometricPrecision" stroke-miterlimit="1.45" shape-rendering="geometricPrecision" font-family="sans-serif" transform="matrix(1,0,0,1,291,-75)" stroke-linecap="butt">
      <text x="692.1238" xml:space="preserve" y="562.7881" clip-path="url(#clipPath11)" stroke="none">&lt;&lt;bean&gt;&gt;</text>
      <text x="676.697" font-size="13px" y="589.2011" clip-path="url(#clipPath11)" stroke="none" font-weight="bold" xml:space="preserve">FileSystemRP</text>
      <line stroke-linecap="square" clip-path="url(#clipPath11)" fill="none" x1="671" x2="769" y1="598" y2="598" stroke-miterlimit="10"/>
      <text x="675" xml:space="preserve" y="615.8382" clip-path="url(#clipPath11)" stroke="none">allowedPath</text>
      <line stroke-linecap="square" clip-path="url(#clipPath11)" fill="none" x1="671" x2="769" y1="624" y2="624" stroke-miterlimit="10"/>
      <text x="675" xml:space="preserve" y="642.1823" clip-path="url(#clipPath11)" stroke="none">getResource(...)</text>
    </g>
    <g fill="rgb(255,204,0)" text-rendering="geometricPrecision" shape-rendering="geometricPrecision" transform="matrix(1,0,0,1,291,-75)" stroke="rgb(255,204,0)">
      <rect x="791" width="98" height="127" y="545" clip-path="url(#clipPath2)" stroke="none"/>
      <rect x="790" y="544" clip-path="url(#clipPath2)" fill="yellow" width="1" height="129" stroke="none"/>
      <rect x="791" y="544" clip-path="url(#clipPath2)" fill="yellow" width="98" height="1" stroke="none"/>
      <rect x="791" y="672" clip-path="url(#clipPath2)" fill="rgb(178,142,0)" width="99" height="1" stroke="none"/>
      <rect x="889" y="544" clip-path="url(#clipPath2)" fill="rgb(178,142,0)" width="1" height="128" stroke="none"/>
    </g>
    <g text-rendering="geometricPrecision" stroke-miterlimit="1.45" shape-rendering="geometricPrecision" font-family="sans-serif" transform="matrix(1,0,0,1,291,-75)" stroke-linecap="butt">
      <text x="812.1238" xml:space="preserve" y="562.7881" clip-path="url(#clipPath12)" stroke="none">&lt;&lt;bean&gt;&gt;</text>
      <text x="812.7715" font-size="13px" y="589.2011" clip-path="url(#clipPath12)" stroke="none" font-weight="bold" xml:space="preserve">WWWRP</text>
      <line stroke-linecap="square" clip-path="url(#clipPath12)" fill="none" x1="791" x2="889" y1="598" y2="598" stroke-miterlimit="10"/>
      <text x="795" xml:space="preserve" y="615.8382" clip-path="url(#clipPath12)" stroke="none">whiteList</text>
      <text x="795" xml:space="preserve" y="632.1823" clip-path="url(#clipPath12)" stroke="none">blackList</text>
      <line stroke-linecap="square" clip-path="url(#clipPath12)" fill="none" x1="791" x2="889" y1="640" y2="640" stroke-miterlimit="10"/>
      <text x="795" xml:space="preserve" y="658.5264" clip-path="url(#clipPath12)" stroke="none">getResource(...)</text>
    </g>
    <g fill="rgb(255,204,0)" text-rendering="geometricPrecision" shape-rendering="geometricPrecision" transform="matrix(1,0,0,1,291,-75)" stroke="rgb(255,204,0)">
      <rect x="911" width="98" height="127" y="545" clip-path="url(#clipPath2)" stroke="none"/>
      <rect x="910" y="544" clip-path="url(#clipPath2)" fill="yellow" width="1" height="129" stroke="none"/>
      <rect x="911" y="544" clip-path="url(#clipPath2)" fill="yellow" width="98" height="1" stroke="none"/>
      <rect x="911" y="672" clip-path="url(#clipPath2)" fill="rgb(178,142,0)" width="99" height="1" stroke="none"/>
      <rect x="1009" y="544" clip-path="url(#clipPath2)" fill="rgb(178,142,0)" width="1" height="128" stroke="none"/>
    </g>
    <g text-rendering="geometricPrecision" stroke-miterlimit="1.45" shape-rendering="geometricPrecision" font-family="sans-serif" transform="matrix(1,0,0,1,291,-75)" stroke-linecap="butt">
      <text x="932.1238" xml:space="preserve" y="562.7881" clip-path="url(#clipPath13)" stroke="none">&lt;&lt;bean&gt;&gt;</text>
      <text x="911.783" font-size="13px" y="589.2011" clip-path="url(#clipPath13)" stroke="none" font-weight="bold" xml:space="preserve">InvenioRDMRP</text>
      <line stroke-linecap="square" clip-path="url(#clipPath13)" fill="none" x1="911" x2="1009" y1="598" y2="598" stroke-miterlimit="10"/>
      <line stroke-linecap="square" clip-path="url(#clipPath13)" fill="none" x1="911" x2="1009" y1="608" y2="608" stroke-miterlimit="10"/>
      <text x="915" xml:space="preserve" y="625.8382" clip-path="url(#clipPath13)" stroke="none">getResource(...)</text>
    </g>
    <g fill="rgb(255,204,0)" text-rendering="geometricPrecision" shape-rendering="geometricPrecision" transform="matrix(1,0,0,1,291,-75)" stroke="rgb(255,204,0)">
      <rect x="4" width="193" height="127" y="586" clip-path="url(#clipPath2)" stroke="none"/>
      <rect x="3" y="585" clip-path="url(#clipPath2)" fill="yellow" width="1" height="129" stroke="none"/>
      <rect x="4" y="585" clip-path="url(#clipPath2)" fill="yellow" width="193" height="1" stroke="none"/>
      <rect x="4" y="713" clip-path="url(#clipPath2)" fill="rgb(178,142,0)" width="194" height="1" stroke="none"/>
      <rect x="197" y="585" clip-path="url(#clipPath2)" fill="rgb(178,142,0)" width="1" height="128" stroke="none"/>
    </g>
    <g text-rendering="geometricPrecision" stroke-miterlimit="1.45" shape-rendering="geometricPrecision" font-family="sans-serif" transform="matrix(1,0,0,1,291,-75)" stroke-linecap="butt">
      <text x="73.4438" xml:space="preserve" y="603.1337" clip-path="url(#clipPath14)" stroke="none">&lt;&lt;bean&gt;&gt;</text>
      <text x="10.4369" font-size="13px" y="629.5468" clip-path="url(#clipPath14)" stroke="none" font-weight="bold" xml:space="preserve">RestrictedResourceResolver</text>
      <text x="62.6631" xml:space="preserve" y="653.1838" clip-path="url(#clipPath14)" stroke="none">{ResourceURIProvider}</text>
      <line stroke-linecap="square" clip-path="url(#clipPath14)" fill="none" x1="4" x2="198" y1="663" y2="663" stroke-miterlimit="10"/>
      <text x="8.64" xml:space="preserve" y="681.528" clip-path="url(#clipPath14)" stroke="none">allowedPath</text>
      <line stroke-linecap="square" clip-path="url(#clipPath14)" fill="none" x1="4" x2="198" y1="690" y2="690" stroke-miterlimit="10"/>
      <text x="8.64" xml:space="preserve" y="707.8721" clip-path="url(#clipPath14)" stroke="none">resolve(...)</text>
    </g>
    <g fill="rgb(255,204,0)" text-rendering="geometricPrecision" shape-rendering="geometricPrecision" transform="matrix(1,0,0,1,291,-75)" stroke="rgb(255,204,0)">
      <rect x="-199" width="133" height="236" y="174" clip-path="url(#clipPath2)" stroke="none"/>
      <rect x="-200" y="173" clip-path="url(#clipPath2)" fill="yellow" width="1" height="238" stroke="none"/>
      <rect x="-199" y="173" clip-path="url(#clipPath2)" fill="yellow" width="133" height="1" stroke="none"/>
      <rect x="-199" y="410" clip-path="url(#clipPath2)" fill="rgb(178,142,0)" width="134" height="1" stroke="none"/>
      <rect x="-66" y="173" clip-path="url(#clipPath2)" fill="rgb(178,142,0)" width="1" height="237" stroke="none"/>
    </g>
    <g text-rendering="geometricPrecision" stroke-miterlimit="1.45" shape-rendering="geometricPrecision" font-family="sans-serif" transform="matrix(1,0,0,1,291,-75)" stroke-linecap="butt">
      <text x="-178.4943" xml:space="preserve" y="191.4481" clip-path="url(#clipPath15)" stroke="none">&lt;&lt;component&gt;&gt;</text>
      <text x="-196.736" font-size="13px" y="217.8611" clip-path="url(#clipPath15)" stroke="none" font-weight="bold" xml:space="preserve">TransformationInfo</text>
      <line stroke-linecap="square" clip-path="url(#clipPath15)" fill="none" x1="-199" x2="-65" y1="226" y2="226" stroke-miterlimit="10"/>
      <text x="-195" xml:space="preserve" y="244.4982" clip-path="url(#clipPath15)" stroke="none">id</text>
      <text x="-195" xml:space="preserve" y="260.8423" clip-path="url(#clipPath15)" stroke="none">class</text>
      <text x="-195" xml:space="preserve" y="277.1865" clip-path="url(#clipPath15)" stroke="none">location</text>
      <text x="-195" xml:space="preserve" y="293.5306" clip-path="url(#clipPath15)" stroke="none">libraries</text>
      <text x="-195" xml:space="preserve" y="309.8747" clip-path="url(#clipPath15)" stroke="none">initialCall</text>
      <text x="-195" xml:space="preserve" y="326.2188" clip-path="url(#clipPath15)" stroke="none">staticParams</text>
      <text x="-195" xml:space="preserve" y="342.5629" clip-path="url(#clipPath15)" stroke="none">runtimeParams</text>
      <text x="-195" xml:space="preserve" y="358.907" clip-path="url(#clipPath15)" stroke="none">...</text>
      <line stroke-linecap="square" clip-path="url(#clipPath15)" fill="none" x1="-199" x2="-65" y1="367" y2="367" stroke-miterlimit="10"/>
      <text x="-195" xml:space="preserve" y="385.2511" clip-path="url(#clipPath15)" stroke="none">fromYAML(...)</text>
      <text x="-195" xml:space="preserve" y="401.5952" clip-path="url(#clipPath15)" stroke="none">fromJSON(...)</text>
    </g>
    <g fill="rgb(255,204,0)" text-rendering="geometricPrecision" shape-rendering="geometricPrecision" transform="matrix(1,0,0,1,291,-75)" stroke="rgb(255,204,0)">
      <rect x="-174" width="147" height="127" y="586" clip-path="url(#clipPath2)" stroke="none"/>
      <rect x="-175" y="585" clip-path="url(#clipPath2)" fill="yellow" width="1" height="129" stroke="none"/>
      <rect x="-174" y="585" clip-path="url(#clipPath2)" fill="yellow" width="147" height="1" stroke="none"/>
      <rect x="-174" y="713" clip-path="url(#clipPath2)" fill="rgb(178,142,0)" width="148" height="1" stroke="none"/>
      <rect x="-27" y="585" clip-path="url(#clipPath2)" fill="rgb(178,142,0)" width="1" height="128" stroke="none"/>
    </g>
    <g text-rendering="geometricPrecision" stroke-miterlimit="1.45" shape-rendering="geometricPrecision" font-family="sans-serif" transform="matrix(1,0,0,1,291,-75)" stroke-linecap="butt">
      <text x="-138.6743" xml:space="preserve" y="603.1337" clip-path="url(#clipPath16)" stroke="none">&lt;&lt;provider&gt;&gt;</text>
      <text x="-168.899" font-size="13px" y="629.5468" clip-path="url(#clipPath16)" stroke="none" font-weight="bold" xml:space="preserve">ConfiguredProcessor</text>
      <line stroke-linecap="square" clip-path="url(#clipPath16)" fill="none" x1="-174" x2="-27" y1="638" y2="638" stroke-miterlimit="10"/>
      <text x="-170.64" xml:space="preserve" y="656.1838" clip-path="url(#clipPath16)" stroke="none">saxonConfigFile</text>
      <line stroke-linecap="square" clip-path="url(#clipPath16)" fill="none" x1="-174" x2="-27" y1="664" y2="664" stroke-miterlimit="10"/>
      <text x="-170.64" xml:space="preserve" y="682.528" clip-path="url(#clipPath16)" stroke="none">provideProcessor()</text>
      <path fill="none" stroke-dasharray="6,2" d="M940.0132 149.9703 L496.8648 149.9703" clip-path="url(#clipPath2)"/>
      <path stroke-dasharray="6,2" d="M492.8648 149.9703 L504.8648 155.9703 L492.8648 149.9703 L504.8648 143.9703 Z" clip-path="url(#clipPath2)" stroke="none"/>
      <path fill="none" stroke-miterlimit="10" d="M492.8648 149.9703 L504.8648 155.9703 L492.8648 149.9703 L504.8648 143.9703 Z" clip-path="url(#clipPath2)" stroke-linecap="square"/>
      <path fill="none" stroke-dasharray="6,2" d="M394.18 216.5771 L394.18 234.53" clip-path="url(#clipPath2)"/>
      <path stroke-dasharray="6,2" d="M394.18 238.53 L400.18 226.53 L394.18 238.53 L388.18 226.53 Z" clip-path="url(#clipPath2)" stroke="none"/>
      <path fill="none" stroke-miterlimit="10" d="M394.18 238.53 L400.18 226.53 L394.18 238.53 L388.18 226.53 Z" clip-path="url(#clipPath2)" stroke-linecap="square"/>
      <path fill="none" stroke-dasharray="6,2" d="M939.9902 210.282 L600 210 L600 270 L496.8575 270" clip-path="url(#clipPath2)"/>
      <path stroke-dasharray="6,2" d="M492.8575 270 L504.8575 276 L492.8575 270 L504.8575 264 Z" clip-path="url(#clipPath2)" stroke="none"/>
      <path fill="none" stroke-miterlimit="10" d="M492.8575 270 L504.8575 276 L492.8575 270 L504.8575 264 Z" clip-path="url(#clipPath2)" stroke-linecap="square"/>
      <path fill="none" stroke-dasharray="6,2" d="M279 544.9822 L279 440.64 L360 440.64 L359.9857 394.0587" clip-path="url(#clipPath2)"/>
    </g>
    <g stroke-linecap="butt" transform="matrix(1,0,0,1,291,-75)" fill="white" text-rendering="geometricPrecision" shape-rendering="geometricPrecision" stroke-dasharray="6,2" stroke="white" stroke-miterlimit="1.45">
      <path d="M359.9812 379.0587 L353.9861 395.0605 L365.9861 395.0569 Z" stroke="none" clip-path="url(#clipPath2)"/>
      <path fill="none" stroke-dasharray="none" d="M359.9812 379.0587 L353.9861 395.0605 L365.9861 395.0569 Z" clip-path="url(#clipPath2)" stroke="black"/>
      <path fill="none" d="M390 544.9354 L390 394.064" clip-path="url(#clipPath2)" stroke="black"/>
      <path d="M390 379.064 L384 395.064 L396 395.064 Z" clip-path="url(#clipPath2)" stroke="none"/>
      <path fill="none" stroke-dasharray="none" d="M390 379.064 L384 395.064 L396 395.064 Z" clip-path="url(#clipPath2)" stroke="black"/>
      <path fill="none" d="M501 544.9257 L501 440.72 L420 440.72 L421.3861 394.0207" clip-path="url(#clipPath2)" stroke="black"/>
      <path d="M421.8311 379.0273 L415.359 394.8422 L427.3538 395.1982 Z" clip-path="url(#clipPath2)" stroke="none"/>
      <path fill="none" stroke-dasharray="none" d="M421.8311 379.0273 L415.359 394.8422 L427.3538 395.1982 Z" clip-path="url(#clipPath2)" stroke="black"/>
      <path fill="none" d="M538.421 544.9584 L540 330 L695.2 330" clip-path="url(#clipPath2)"/>
      <path fill="black" d="M699.2 330 L687.2 324 L699.2 330 L687.2 336 Z" clip-path="url(#clipPath2)" stroke="none"/>
      <path fill="none" stroke-miterlimit="10" stroke-dasharray="none" d="M699.2 330 L687.2 324 L699.2 330 L687.2 336 Z" clip-path="url(#clipPath2)" stroke-linecap="square"/>
      <path fill="none" d="M426.9841 544.9561 L427.13 429.82 L526.97 429.82 L526.97 318.1847 L695.2139 318.1847" clip-path="url(#clipPath2)"/>
      <path fill="black" d="M699.2139 318.1847 L687.2139 312.1847 L699.2139 318.1847 L687.2139 324.1847 Z" clip-path="url(#clipPath2)" stroke="none"/>
      <path fill="none" stroke-miterlimit="10" stroke-dasharray="none" d="M699.2139 318.1847 L687.2139 312.1847 L699.2139 318.1847 L687.2139 324.1847 Z" clip-path="url(#clipPath2)" stroke-linecap="square"/>
      <path fill="none" d="M939.98 270 L864.7747 270" clip-path="url(#clipPath2)" stroke="black"/>
      <path fill="black" d="M860.7747 270 L872.7747 276 L860.7747 270 L872.7747 264 Z" clip-path="url(#clipPath2)" stroke="none"/>
    </g>
    <g text-rendering="geometricPrecision" shape-rendering="geometricPrecision" transform="matrix(1,0,0,1,291,-75)">
      <path fill="none" d="M860.7747 270 L872.7747 276 L860.7747 270 L872.7747 264 Z" clip-path="url(#clipPath2)"/>
      <path fill="none" stroke-miterlimit="1.45" stroke-dasharray="6,2" d="M491.8725 300.9233 L695.2148 300.9233" clip-path="url(#clipPath2)" stroke-linecap="butt"/>
      <path stroke-miterlimit="1.45" stroke-dasharray="6,2" d="M699.2148 300.9233 L687.2148 294.9233 L699.2148 300.9233 L687.2148 306.9233 Z" clip-path="url(#clipPath2)" stroke-linecap="butt" stroke="none"/>
      <path fill="none" d="M699.2148 300.9233 L687.2148 294.9233 L699.2148 300.9233 L687.2148 306.9233 Z" clip-path="url(#clipPath2)"/>
    </g>
    <g stroke-linecap="butt" transform="matrix(1,0,0,1,291,-75)" fill="white" text-rendering="geometricPrecision" shape-rendering="geometricPrecision" stroke-dasharray="6,2" stroke="white" stroke-miterlimit="1.45">
      <path fill="none" d="M311.3478 544.954 L311.3478 420 L510 420 L510 306.3821 L695.2222 306.3821" clip-path="url(#clipPath2)"/>
      <path fill="black" d="M699.2222 306.3821 L687.2222 300.3821 L699.2222 306.3821 L687.2222 312.3821 Z" clip-path="url(#clipPath2)" stroke="none"/>
      <path fill="none" stroke-miterlimit="10" stroke-dasharray="none" d="M699.2222 306.3821 L687.2222 300.3821 L699.2222 306.3821 L687.2222 312.3821 Z" clip-path="url(#clipPath2)" stroke-linecap="square"/>
      <path fill="none" d="M68.64 173.6017 L68.64 150 L281.5201 149.4093" clip-path="url(#clipPath2)" stroke="black"/>
      <path d="M296.5201 149.3677 L280.5035 143.4121 L280.5368 155.412 Z" clip-path="url(#clipPath2)" stroke="none"/>
      <path fill="none" stroke-dasharray="none" d="M296.5201 149.3677 L280.5035 143.4121 L280.5368 155.412 Z" clip-path="url(#clipPath2)" stroke="black"/>
      <path fill="none" stroke-dasharray="none" d="M38.64 173.6017 L38.64 90 L870 90 L870 143.3595 L939.9731 143.3595" clip-path="url(#clipPath2)" stroke="black"/>
    </g>
    <g text-rendering="geometricPrecision" stroke-miterlimit="1.45" shape-rendering="geometricPrecision" font-family="sans-serif" transform="matrix(1,0,0,1,291,-75)" stroke-linecap="butt">
      <text x="892.0142" xml:space="preserve" y="128.8156" clip-path="url(#clipPath2)" stroke="none">inject</text>
      <path fill="none" d="M134.6566 276.0369 L150 275.7021 L150 338.7267 L150 420 L240 420 L240.4222 544.9327" clip-path="url(#clipPath2)"/>
      <path d="M127.6583 276.1896 L134.5475 271.0381 L141.655 275.8842 L134.7657 281.0357 Z" clip-path="url(#clipPath2)" stroke="none"/>
      <path fill="none" d="M134.6808 275.7021 L150 275.7021 L150 337.7921 L150 420 L349.9628 420 L349.9628 544.9337" clip-path="url(#clipPath2)"/>
      <path d="M127.6808 275.7021 L134.6808 270.7021 L141.6808 275.7021 L134.6808 280.7021 Z" clip-path="url(#clipPath2)" stroke="none"/>
      <path fill="none" d="M134.6474 275.7277 L150 275.7277 L150 337.8177 L150 420 L463.1187 420 L463.1187 544.9366" clip-path="url(#clipPath2)"/>
      <path d="M127.6474 275.7277 L134.6474 270.7277 L141.6474 275.7277 L134.6474 280.7277 Z" clip-path="url(#clipPath2)" stroke="none"/>
      <text x="157.8598" xml:space="preserve" y="378.3119" clip-path="url(#clipPath2)" stroke="none">creates,</text>
      <text x="158.1358" xml:space="preserve" y="394.656" clip-path="url(#clipPath2)" stroke="none">sets up,</text>
      <text x="162.5939" xml:space="preserve" y="411.0002" clip-path="url(#clipPath2)" stroke="none">stores</text>
      <path fill="none" stroke-dasharray="6,2" d="M720 544.9256 L720 450 L750 450 L750 354.4836" clip-path="url(#clipPath2)"/>
    </g>
    <g stroke-linecap="butt" transform="matrix(1,0,0,1,291,-75)" fill="white" text-rendering="geometricPrecision" shape-rendering="geometricPrecision" stroke-dasharray="6,2" stroke="white" stroke-miterlimit="1.45">
      <path d="M750 339.4836 L744 355.4836 L756 355.4836 Z" stroke="none" clip-path="url(#clipPath2)"/>
      <path fill="none" stroke-dasharray="none" d="M750 339.4836 L744 355.4836 L756 355.4836 Z" clip-path="url(#clipPath2)" stroke="black"/>
      <path fill="none" stroke-dasharray="none" d="M939.998 287.1521 L885.1064 287.1521 L885.1064 507.1521 L789.8168 507.1521" clip-path="url(#clipPath2)" stroke="black"/>
    </g>
    <g text-rendering="geometricPrecision" stroke-miterlimit="1.45" shape-rendering="geometricPrecision" font-family="sans-serif" transform="matrix(1,0,0,1,291,-75)" stroke-linecap="butt">
      <text x="893.7035" xml:space="preserve" y="308.9121" clip-path="url(#clipPath2)" stroke="none">1inject</text>
      <path fill="none" stroke-dasharray="6,2" d="M840 544.9983 L840 450 L780 450 L780 354.5148" clip-path="url(#clipPath2)"/>
    </g>
    <g stroke-linecap="butt" transform="matrix(1,0,0,1,291,-75)" fill="white" text-rendering="geometricPrecision" shape-rendering="geometricPrecision" stroke-dasharray="6,2" stroke="white" stroke-miterlimit="1.45">
      <path d="M780 339.5148 L774 355.5148 L786 355.5148 Z" stroke="none" clip-path="url(#clipPath2)"/>
      <path fill="none" stroke-dasharray="none" d="M780 339.5148 L774 355.5148 L786 355.5148 Z" clip-path="url(#clipPath2)" stroke="black"/>
    </g>
    <g stroke-linecap="butt" transform="matrix(1,0,0,1,291,-75)" fill="silver" text-rendering="geometricPrecision" shape-rendering="geometricPrecision" stroke="silver" stroke-width="6" stroke-miterlimit="1.45">
      <path fill="none" d="M-264 468 L-226.7321 466.8425 L-189.5804 465.695 L-152.661 464.5678 L-116.0899 463.4709 L-79.9834 462.4144 L-44.4576 461.4085 L-9.6286 460.4632 L24.3876 459.5886 L57.4746 458.7949 L89.5164 458.0922 L120.397 457.4905 L150 457 L178.2422 456.6282 L205.1715 456.3723 L230.8686 456.2268 L255.414 456.1865 L278.8885 456.2459 L301.3728 456.3996 L322.9474 456.6422 L343.6931 456.9683 L363.6906 457.3725 L383.0204 457.8495 L401.7633 458.3938 L420 459 L437.8292 459.6616 L455.4221 460.3668 L472.9679 461.103 L490.6561 461.8571 L508.6758 462.6165 L527.2165 463.3683 L546.4673 464.0996 L566.6177 464.7976 L587.8569 465.4495 L610.3741 466.0424 L634.3587 466.5635 L660 467 L687.4301 467.3425 L716.5523 467.5956 L747.2129 467.7676 L779.2579 467.8664 L812.5336 467.9002 L846.8862 467.8772 L882.1617 467.8055 L918.2064 467.6931 L954.8663 467.5483 L991.9878 467.3791 L1029.417 467.1936 L1067 467" clip-path="url(#clipPath2)"/>
    </g>
    <g text-rendering="geometricPrecision" stroke-miterlimit="1.45" shape-rendering="geometricPrecision" font-family="sans-serif" transform="matrix(1,0,0,1,291,-75)" stroke-linecap="butt">
      <text x="-250.0361" xml:space="preserve" y="455.937" clip-path="url(#clipPath2)" stroke="none">high level</text>
      <text x="-224.4699" xml:space="preserve" y="472.2811" clip-path="url(#clipPath2)" stroke="none"> </text>
      <text x="-273.2023" xml:space="preserve" y="488.6252" clip-path="url(#clipPath2)" stroke="none">low level (plugins)</text>
      <path fill="none" stroke-dasharray="6,2" d="M960 544.9733 L960 420 L810 420 L810 354.5367" clip-path="url(#clipPath2)"/>
    </g>
    <g stroke-linecap="butt" transform="matrix(1,0,0,1,291,-75)" fill="white" text-rendering="geometricPrecision" shape-rendering="geometricPrecision" stroke-dasharray="6,2" stroke="white" stroke-miterlimit="1.45">
      <path d="M810 339.5367 L804 355.5367 L816 355.5367 Z" stroke="none" clip-path="url(#clipPath2)"/>
      <path fill="none" stroke-dasharray="none" d="M810 339.5367 L804 355.5367 L816 355.5367 Z" clip-path="url(#clipPath2)" stroke="black"/>
      <path fill="none" stroke-dasharray="none" d="M101.32 585.3223 L101.32 510 L260.09 510 L260.09 544.9167" clip-path="url(#clipPath2)" stroke="black"/>
    </g>
    <g text-rendering="geometricPrecision" stroke-miterlimit="1.45" shape-rendering="geometricPrecision" font-family="sans-serif" transform="matrix(1,0,0,1,291,-75)" stroke-linecap="butt">
      <text x="198.2947" xml:space="preserve" y="525.1418" clip-path="url(#clipPath2)" stroke="none">inject</text>
      <path fill="none" d="M101.32 585.3223 L101.32 510 L368.25 510 L368.25 544.9567" clip-path="url(#clipPath2)"/>
      <path fill="none" stroke-dasharray="6,2" d="M-7.6152 258.66 L-59.697 258.66" clip-path="url(#clipPath2)"/>
      <path stroke-dasharray="6,2" d="M-63.697 258.66 L-51.697 264.66 L-63.697 258.66 L-51.697 252.66 Z" clip-path="url(#clipPath2)" stroke="none"/>
      <path fill="none" stroke-miterlimit="10" d="M-63.697 258.66 L-51.697 264.66 L-63.697 258.66 L-51.697 252.66 Z" clip-path="url(#clipPath2)" stroke-linecap="square"/>
      <path fill="none" stroke-dasharray="6,2" d="M296.471 300 L210 300 L210 120 L-132.657 120 L-132.657 160.112 L-132.6379 168.6095" clip-path="url(#clipPath2)"/>
      <path stroke-dasharray="6,2" d="M-132.629 172.6095 L-126.6559 160.5961 L-132.629 172.6095 L-138.6558 160.623 Z" clip-path="url(#clipPath2)" stroke="none"/>
      <path fill="none" stroke-miterlimit="10" d="M-132.629 172.6095 L-126.6559 160.5961 L-132.629 172.6095 L-138.6558 160.623 Z" clip-path="url(#clipPath2)" stroke-linecap="square"/>
      <path fill="none" d="M-101 585.3193 L-101 480 L270 480 L270 544.9327" clip-path="url(#clipPath2)"/>
      <text x="191.0012" xml:space="preserve" y="473.1872" clip-path="url(#clipPath2)" stroke="none">inject</text>
      <path fill="none" d="M-101 585.3193 L-101 480 L378.1178 480 L378.1178 544.9542" clip-path="url(#clipPath2)"/>
    </g>
  </g>
</svg>
